<svg xmlns="http://www.w3.org/2000/svg" enable-background="new 0 0 64 64" viewBox="0 0 64 64" id="menu">
	<path fill="#f2f2f2" d="M23,49h-4c-2.2,0-4-1.8-4-4v-4c0-2.2,1.8-4,4-4h4c2.2,0,4,1.8,4,4v4C27,47.2,25.2,49,23,49z"></path>
	<path fill="#d7435c" d="M45,49h-4c-2.2,0-4-1.8-4-4v-4c0-2.2,1.8-4,4-4h4c2.2,0,4,1.8,4,4v4C49,47.2,47.2,49,45,49z"></path><path fill="#ffdb41" d="M23,27h-4c-2.2,0-4-1.8-4-4v-4c0-2.2,1.8-4,4-4h4c2.2,0,4,1.8,4,4v4C27,25.2,25.2,27,23,27z"></path><path fill="#1c94f9" d="M45,27h-4c-2.2,0-4-1.8-4-4v-4c0-2.2,1.8-4,4-4h4c2.2,0,4,1.8,4,4v4C49,25.2,47.2,27,45,27z"></path><linearGradient id="a" x1="13" x2="29" y1="21" y2="21" gradientUnits="userSpaceOnUse"><stop offset=".002" stop-color="#034a7a"></stop><stop offset="1" stop-color="#002f49"></stop></linearGradient><path fill="url(#a)" d="M23,13h-4c-3.3,0-6,2.7-6,6v4c0,3.3,2.7,6,6,6h4c3.3,0,6-2.7,6-6v-4C29,15.7,26.3,13,23,13z M25,23
			c0,1.1-0.9,2-2,2h-4c-1.1,0-2-0.9-2-2v-4c0-1.1,0.9-2,2-2h4c1.1,0,2,0.9,2,2V23z"></path><linearGradient id="b" x1="35" x2="51" y1="21" y2="21" gradientUnits="userSpaceOnUse"><stop offset=".002" stop-color="#034a7a"></stop><stop offset="1" stop-color="#002f49"></stop></linearGradient><path fill="url(#b)" d="M45,13h-4c-3.3,0-6,2.7-6,6v4c0,3.3,2.7,6,6,6h4c1.1,0,2-0.9,2-2s-0.9-2-2-2h-4c-1.1,0-2-0.9-2-2v-4
			c0-1.1,0.9-2,2-2h4c1.1,0,2,0.9,2,2v2c0,1.1,0.9,2,2,2s2-0.9,2-2v-2C51,15.7,48.3,13,45,13z"></path><linearGradient id="c" x1="13" x2="29" y1="43" y2="43" gradientUnits="userSpaceOnUse"><stop offset=".002" stop-color="#034a7a"></stop><stop offset="1" stop-color="#002f49"></stop></linearGradient><path fill="url(#c)" d="M23,35h-4c-3.3,0-6,2.7-6,6v4c0,3.3,2.7,6,6,6h4c3.3,0,6-2.7,6-6v-4C29,37.7,26.3,35,23,35z M25,45
			c0,1.1-0.9,2-2,2h-4c-1.1,0-2-0.9-2-2v-4c0-1.1,0.9-2,2-2h4c1.1,0,2,0.9,2,2V45z"></path><linearGradient id="d" x1="35" x2="51" y1="43" y2="43" gradientUnits="userSpaceOnUse"><stop offset=".002" stop-color="#034a7a"></stop><stop offset="1" stop-color="#002f49"></stop></linearGradient><path fill="url(#d)" d="M45,35h-4c-3.3,0-6,2.7-6,6v4c0,3.3,2.7,6,6,6h4c3.3,0,6-2.7,6-6v-4C51,37.7,48.3,35,45,35z M47,45
			c0,1.1-0.9,2-2,2h-4c-1.1,0-2-0.9-2-2v-4c0-1.1,0.9-2,2-2h4c1.1,0,2,0.9,2,2V45z"></path></svg>